<svg width="1200" height="420" viewBox="0 0 1200 420" fill="none" xmlns="http://www.w3.org/2000/svg">
  <rect width="1200" height="420" rx="28" fill="#F7FBFF"/>
  <rect x="44" y="44" width="1112" height="332" rx="24" fill="url(#bg)"/>
  <circle cx="210" cy="160" r="72" fill="#D9ECFF"/>
  <rect x="165" y="132" width="90" height="104" rx="20" fill="#4F87C7"/>
  <rect x="330" y="110" width="360" height="24" rx="12" fill="#D9ECFF"/>
  <rect x="330" y="150" width="300" height="18" rx="9" fill="#EAF4FF"/>
  <rect x="330" y="182" width="256" height="18" rx="9" fill="#EAF4FF"/>
  <rect x="330" y="214" width="278" height="18" rx="9" fill="#EAF4FF"/>
  <rect x="734" y="98" width="328" height="224" rx="22" fill="#FFFFFF" fill-opacity="0.92"/>
  <rect x="770" y="136" width="120" height="16" rx="8" fill="#93BCE4"/>
  <rect x="770" y="174" width="220" height="14" rx="7" fill="#D9ECFF"/>
  <rect x="770" y="204" width="180" height="14" rx="7" fill="#D9ECFF"/>
  <rect x="770" y="234" width="200" height="14" rx="7" fill="#D9ECFF"/>
  <rect x="770" y="272" width="90" height="28" rx="14" fill="#4F87C7"/>
  <rect x="878" y="272" width="126" height="28" rx="14" fill="#D9ECFF"/>
  <defs>
    <linearGradient id="bg" x1="44" y1="44" x2="1156" y2="376" gradientUnits="userSpaceOnUse">
      <stop stop-color="#EAF4FF"/>
      <stop offset="1" stop-color="#FDFEFF"/>
    </linearGradient>
  </defs>
</svg>
