<svg width="1200" height="420" viewBox="0 0 1200 420" fill="none" xmlns="http://www.w3.org/2000/svg">
  <rect width="1200" height="420" rx="28" fill="#F7FBFF"/>
  <rect x="44" y="44" width="1112" height="332" rx="24" fill="url(#bg)"/>
  <rect x="92" y="92" width="474" height="236" rx="22" fill="#FFFFFF" fill-opacity="0.95"/>
  <rect x="132" y="136" width="180" height="16" rx="8" fill="#8FB9E2"/>
  <rect x="132" y="182" width="370" height="18" rx="9" fill="#D9ECFF"/>
  <rect x="132" y="220" width="320" height="18" rx="9" fill="#D9ECFF"/>
  <rect x="132" y="258" width="392" height="18" rx="9" fill="#D9ECFF"/>
  <rect x="628" y="92" width="472" height="236" rx="22" fill="#FFFFFF" fill-opacity="0.95"/>
  <rect x="678" y="250" width="60" height="42" rx="12" fill="#4F87C7"/>
  <rect x="756" y="220" width="60" height="72" rx="12" fill="#6EA8DF"/>
  <rect x="834" y="188" width="60" height="104" rx="12" fill="#8FC0EA"/>
  <rect x="912" y="156" width="60" height="136" rx="12" fill="#B6D9F5"/>
  <rect x="990" y="120" width="60" height="172" rx="12" fill="#D9ECFF"/>
  <rect x="676" y="116" width="180" height="16" rx="8" fill="#8FB9E2"/>
  <defs>
    <linearGradient id="bg" x1="44" y1="44" x2="1156" y2="376" gradientUnits="userSpaceOnUse">
      <stop stop-color="#EAF4FF"/>
      <stop offset="1" stop-color="#FDFEFF"/>
    </linearGradient>
  </defs>
</svg>
